<svg width="512" height="512" viewBox="0 0 512 512" fill="none" xmlns="http://www.w3.org/2000/svg">
<rect width="512" height="512" fill="white"/>
<path fill-rule="evenodd" clip-rule="evenodd" d="M190.557 116.411C156.108 122.072 125.798 134.288 110.027 148.87C94.7713 162.974 87.0017 182.323 89.4423 200.129L89.8183 202.87L93.1175 197.368C109.593 169.9 140.043 148.53 181.502 135.34C185.743 133.992 189.819 132.888 190.561 132.888C191.861 132.888 198.912 135.811 198.529 136.191C198.426 136.293 195.982 137.194 193.098 138.193C114.612 165.375 103.481 257.111 167.005 353.254C189.29 386.981 225.633 422.356 258.853 442.658L262.483 444.875L337.691 444.71C379.055 444.619 413.101 444.342 413.348 444.096C414.111 443.333 413.375 443.046 405.341 440.963C332.031 421.964 282.51 395.67 238.005 352.11C179.952 295.288 158.313 236.952 179.395 194.097C180.971 190.894 183.486 185.714 184.985 182.585C186.484 179.456 189.22 174.355 191.067 171.247C195.034 164.571 195.012 164.485 189.97 166.967C182.898 170.448 173.404 180.468 168.138 190.008C155.631 212.665 158.036 251.859 173.86 283.295C174.639 284.841 175.111 286.537 174.909 287.061C174.685 287.646 174.826 287.949 175.273 287.842C175.674 287.746 176.236 288.271 176.522 289.008C176.89 289.959 176.83 290.307 176.315 290.206C175.915 290.127 175.56 290.602 175.527 291.261C175.418 293.391 175.28 293.67 174.747 292.831C174.46 292.377 173.921 292.194 173.55 292.423C173.178 292.653 173.055 293.133 173.275 293.491C173.517 293.881 173.398 293.967 172.976 293.708C172.59 293.469 172.418 293.043 172.592 292.762C172.765 292.48 172.434 292.126 171.853 291.975C171.273 291.823 171.692 291.668 172.787 291.63C174.552 291.568 174.675 291.46 173.879 290.663C173.341 290.127 172.545 289.932 171.89 290.177C170.929 290.538 170.896 290.466 171.619 289.577C172.344 288.686 172.286 288.567 171.135 288.567C170.361 288.567 169.989 288.306 170.224 287.927C170.442 287.575 170.988 287.429 171.438 287.601C171.887 287.774 172.404 287.677 172.584 287.386C172.764 287.094 172.091 286.96 171.087 287.086C169.787 287.251 169.381 287.109 169.677 286.594C169.906 286.197 169.878 286.065 169.617 286.3C169.357 286.536 168.643 286.461 168.033 286.134C167.03 285.597 166.98 285.69 167.513 287.092C168.254 289.042 168.253 289.328 167.504 288.866C166.76 288.406 166.743 289.179 167.472 290.332C167.903 291.013 168.106 290.861 168.418 289.617C168.636 288.747 168.613 287.709 168.367 287.31C168.082 286.849 168.169 286.74 168.61 287.012C169.538 287.586 169.494 290.759 168.552 291.121C167.099 291.679 166.618 291.54 166.612 290.559C166.609 290.014 166.231 289.442 165.774 289.289C165.192 289.094 165.099 289.258 165.46 289.836C165.745 290.291 165.9 291.134 165.805 291.71C165.696 292.374 166.03 292.775 166.719 292.805C167.497 292.839 167.566 292.947 166.958 293.187C166.493 293.371 165.775 293.062 165.364 292.499C164.675 291.556 164.587 291.575 164.215 292.745C163.984 293.475 164.147 294.445 164.6 295.032C165.216 295.828 165.1 295.804 164.07 294.928C162.723 293.778 162.996 292.102 164.75 290.756C165.145 290.452 164.971 290.392 164.312 290.606C163.708 290.801 162.977 290.962 162.684 290.962C162.392 290.962 162.298 291.339 162.475 291.799C162.651 292.26 162.554 292.787 162.258 292.969C161.368 293.52 161.839 290.853 162.759 290.132C163.826 289.298 164.145 287.583 163.329 287.079C162.968 286.857 162.714 287.348 162.714 288.267C162.714 289.226 162.466 289.682 162.075 289.44C161.723 289.222 161.589 288.6 161.777 288.056C162.087 287.162 162.049 287.16 161.368 288.021C160.956 288.544 160.214 288.836 159.721 288.672C159 288.431 158.964 288.543 159.537 289.24C160.117 289.941 160.044 290.107 159.157 290.107C158.445 290.107 158.177 289.801 158.394 289.238C158.592 288.72 158.47 288.528 158.088 288.764C157.737 288.981 157.312 288.823 157.143 288.413C156.975 288.004 155.462 284.493 153.784 280.61C139.383 247.294 137.989 214.043 149.989 190.07C166.422 157.242 199.714 138.657 242.059 138.677C256.965 138.683 255.933 138.302 261.713 145.926C266.533 152.283 270.17 155.901 274.504 158.65L277.313 160.431H271.642C228.088 160.431 194.391 188.439 194.2 224.798C194.057 251.944 217.192 290.489 251.241 319.833C258.621 326.193 258.772 326.169 255.265 319.186C227.962 264.822 233.995 208.259 269.527 185.466C295.464 168.828 326.127 172.925 321.173 192.367L320.739 194.066L323.241 192.666C338.123 184.341 342.082 164.674 331.115 153.55C322.191 144.498 269.465 130.078 234.866 127.227C218.438 125.873 215.01 124.767 204.052 117.288C202.148 115.988 200.219 114.949 199.765 114.979C199.311 115.009 195.167 115.653 190.557 116.411ZM286.359 146.126C291.958 147.73 297.01 149.045 297.586 149.048C299.361 149.058 298.756 150.76 296.001 153.516C288.038 161.479 274.748 156.45 272.559 144.649L272.13 142.339L274.155 142.775C275.269 143.015 280.761 144.523 286.359 146.126ZM159.368 283.627C159.601 284.039 159.506 284.409 159.158 284.451C158.808 284.491 158.187 284.558 157.775 284.6C157.058 284.671 156.704 286.022 157.325 286.31C158.313 286.768 160.519 284.339 159.758 283.633C159.118 283.038 159.036 283.036 159.368 283.627ZM168.403 284.33L166.606 284.74L168.53 285.049C169.806 285.254 170.555 285.093 170.756 284.568C171.083 283.715 171.084 283.715 168.403 284.33Z" fill="#051A21"/>
<path d="M349.366 187.851C352.932 182.212 354.019 177.51 354.019 167.707V159.116L356.45 161.802C387.448 196.041 378.798 255.849 339.021 282.316C321.327 294.089 309.988 297.047 281.185 297.405L261.641 297.646L259.494 291.161C257.337 284.65 254.935 275.358 254.928 273.501C254.923 272.598 256.833 272.483 275.73 272.256C295.789 272.017 296.743 271.952 302.276 270.467C326.787 263.887 342.025 250.075 348.718 228.372C351.159 220.457 351.253 202.02 348.888 195.336L347.362 191.021L349.366 187.851Z" fill="url(#paint0_linear_1986_1033)"/>
<path d="M110.757 147.923C127.076 132.77 157.071 120.991 192.717 115.109C197.488 114.321 200.271 114.423 201.02 114.765C202.763 115.561 201.893 116.542 203.863 117.892C216.623 124.547 211.539 124.147 228.314 126.336L220.077 126.336C217.267 126.618 186.022 128.247 183.211 128.394C184.563 128.653 191.749 132.677 190.5 132.677C189.647 132.961 188.064 133.266 183.676 134.667C140.777 148.373 110.308 169.777 93.2605 198.321L89.8467 204.039L89.4577 201.191C86.9323 182.687 94.9717 162.58 110.757 147.923Z" fill="#055A7E"/>
<path d="M116.609 127.328V112.145C116.609 103.794 116.772 96.9619 116.972 96.9619C117.171 96.9619 118.075 97.5846 118.98 98.3463C125.903 104.171 141.486 108.889 154.032 108.959L158.822 108.985L150.14 112.453C136.888 117.747 128.419 121.405 122.232 124.507L116.609 127.328Z" fill="#124357"/>
<path d="M92.5623 235.576C96.9596 215.801 105.635 200.618 120.392 186.865C125.51 182.096 125.657 182.294 122.399 189.551C115.006 206.015 112.26 219.253 112.169 238.869L112.112 251.144L109.9 254.138C104.485 261.468 102.86 267.253 102.847 279.252L102.838 287.602L101.27 285.539C93.4018 275.196 89.1625 250.866 92.5623 235.576Z" fill="#064E73"/>
<path d="M116.609 444.844L116.645 359.071L116.681 273.298L119.584 283.178C125.719 304.055 134.2 323.253 145.932 342.814L151.355 351.855L151.496 361.974C151.574 367.54 151.57 388.463 151.487 408.469L151.338 444.844H133.974H116.609Z" fill="url(#paint1_linear_1986_1033)"/>
<path d="M142.422 89.4357C132.64 86.2635 122.901 78.5574 118.832 70.7698L116.863 67L195.8 67.2144C272.311 67.4227 275.003 67.4682 283.418 68.6909C335.362 76.2353 373.481 98.8878 399.562 137.708C457.586 224.075 399.876 342.723 298.3 345.894L287.734 346.224L283.247 338.672C278.301 330.348 273.528 321.042 273.974 320.595C274.133 320.437 281.239 320.161 289.767 319.983C321.073 319.327 341.676 311.851 361.95 293.791C385.973 272.39 397.507 245.813 397.464 211.955C397.394 157.635 358.442 111.879 299.585 96.979L218.153 92.8175C149.231 92.402 151.94 92.523 142.422 89.4357Z" fill="url(#paint2_linear_1986_1033)"/>
<path d="M151.535 352.902L151.549 444.853H139.607L139.9 333.118L151.535 352.902Z" fill="#041920"/>
<path d="M298.255 411.155V431.49C231.974 393.888 192.149 351.235 169.46 312.542C159.62 295.761 153.997 282.283 149.843 267.726C143.391 245.11 141.89 223.507 144.478 210.791C150.952 178.971 174.154 160.051 184.945 154.569L196.636 165.634C176.972 172.332 166.26 194.941 163.363 205.408C147.056 302.061 246.496 382.845 298.255 411.155Z" fill="url(#paint3_linear_1986_1033)"/>
<path d="M346.02 400.299C341.938 404.388 330.311 411.425 325.008 414.432C170.723 327.23 157.214 235.23 180.327 192.231C198.817 157.832 244.563 148.216 264.074 148.918C268.396 155.172 275.48 159.342 278.482 160.644C206.922 159.201 191.634 208.154 192.935 232.811C200.139 318.209 297.993 380.052 346.02 400.299Z" fill="#7698A5"/>
<path d="M199.883 114.524C272.061 108.649 308.049 133.086 317.02 146.039C306.112 142.979 281.175 136.003 268.697 132.576C253.099 128.293 238.725 127.987 224.962 126.763C213.952 125.784 203.655 118.196 199.883 114.524Z" fill="#729AA5"/>
<defs>
<linearGradient id="paint0_linear_1986_1033" x1="344.598" y1="120.167" x2="282.617" y2="328.569" gradientUnits="userSpaceOnUse">
<stop stop-color="#055F83"/>
<stop offset="1" stop-color="#044566"/>
</linearGradient>
<linearGradient id="paint1_linear_1986_1033" x1="134.081" y1="273.298" x2="134.081" y2="444.844" gradientUnits="userSpaceOnUse">
<stop stop-color="#034768"/>
<stop offset="1" stop-color="#04344D"/>
</linearGradient>
<linearGradient id="paint2_linear_1986_1033" x1="103.216" y1="-3.22549" x2="367.912" y2="337.951" gradientUnits="userSpaceOnUse">
<stop stop-color="#056389"/>
<stop offset="1" stop-color="#023D5B"/>
</linearGradient>
<linearGradient id="paint3_linear_1986_1033" x1="133.07" y1="194.373" x2="230.021" y2="470.441" gradientUnits="userSpaceOnUse">
<stop stop-color="white"/>
<stop offset="1" stop-color="#133B4F"/>
</linearGradient>
</defs>
</svg>
